<svg width="287" height="120" viewBox="-13.5 -12.5 287 120" fill="none" xmlns="http://www.w3.org/2000/svg" style="flex-shrink: 0">
  <line x1="130" y1="48" x2="60" y2="22" stroke="#3CC8FF33" />
  <line x1="130" y1="48" x2="100" y2="15" stroke="#3CC8FF33" />
  <line x1="130" y1="48" x2="170" y2="18" stroke="#3CC8FF33" />
  <line x1="130" y1="48" x2="200" y2="28" stroke="#3CC8FF33" />
  <line x1="130" y1="48" x2="45" y2="52" stroke="#3CC8FF33" />
  <line x1="130" y1="48" x2="215" y2="55" stroke="#3CC8FF33" />
  <line x1="130" y1="48" x2="75" y2="72" stroke="#3CC8FF33" />
  <line x1="130" y1="48" x2="185" y2="75" stroke="#3CC8FF33" />
  <line x1="130" y1="48" x2="110" y2="80" stroke="#3CC8FF33" />
  <line x1="130" y1="48" x2="150" y2="82" stroke="#3CC8FF33" />
  <g style="opacity: 0.75">
    <ellipse cx="60" cy="22" rx="7" ry="6" fill="#1A80CC" />
    <line x1="53" y1="22" x2="44" y2="18" stroke="#64C8FFB3" stroke-width="1.5" stroke-linecap="round" />
    <line x1="67" y1="22" x2="76" y2="18" stroke="#64C8FFB3" stroke-width="1.5" stroke-linecap="round" />
    <circle cx="60" cy="21" r="2" fill="#B4F0FFE6" />
  </g>
  <g style="opacity: 0.7">
    <ellipse cx="100" cy="15" rx="7" ry="6" fill="#1A80CC" />
    <line x1="93" y1="15" x2="84" y2="11" stroke="#64C8FFB3" stroke-width="1.5" stroke-linecap="round" />
    <line x1="107" y1="15" x2="116" y2="11" stroke="#64C8FFB3" stroke-width="1.5" stroke-linecap="round" />
    <circle cx="100" cy="14" r="2" fill="#B4F0FFE6" />
  </g>
  <g style="opacity: 0.7">
    <ellipse cx="170" cy="18" rx="7" ry="6" fill="#1A80CC" />
    <line x1="163" y1="18" x2="154" y2="14" stroke="#64C8FFB3" stroke-width="1.5" stroke-linecap="round" />
    <line x1="177" y1="18" x2="186" y2="14" stroke="#64C8FFB3" stroke-width="1.5" stroke-linecap="round" />
    <circle cx="170" cy="17" r="2" fill="#B4F0FFE6" />
  </g>
  <g style="opacity: 0.65">
    <ellipse cx="200" cy="28" rx="6" ry="5" fill="#1A80CC" />
    <line x1="194" y1="28" x2="186" y2="25" stroke="#64C8FFB3" stroke-width="1.2" stroke-linecap="round" />
    <line x1="206" y1="28" x2="214" y2="25" stroke="#64C8FFB3" stroke-width="1.2" stroke-linecap="round" />
    <circle cx="200" cy="27" r="1.8" fill="#B4F0FFE6" />
  </g>
  <g style="opacity: 0.65">
    <ellipse cx="45" cy="52" rx="6" ry="5" fill="#1A80CC" />
    <line x1="39" y1="52" x2="31" y2="49" stroke="#64C8FFB3" stroke-width="1.2" stroke-linecap="round" />
    <line x1="51" y1="52" x2="59" y2="49" stroke="#64C8FFB3" stroke-width="1.2" stroke-linecap="round" />
    <circle cx="45" cy="51" r="1.8" fill="#B4F0FFE6" />
  </g>
  <g style="opacity: 0.65">
    <ellipse cx="215" cy="55" rx="6" ry="5" fill="#1A80CC" />
    <line x1="209" y1="55" x2="201" y2="52" stroke="#64C8FFB3" stroke-width="1.2" stroke-linecap="round" />
    <line x1="221" y1="55" x2="229" y2="52" stroke="#64C8FFB3" stroke-width="1.2" stroke-linecap="round" />
    <circle cx="215" cy="54" r="1.8" fill="#B4F0FFE6" />
  </g>
  <g style="opacity: 0.6">
    <ellipse cx="75" cy="72" rx="6" ry="5" fill="#1A80CC" />
    <line x1="69" y1="72" x2="61" y2="69" stroke="#64C8FFB3" stroke-width="1.2" stroke-linecap="round" />
    <line x1="81" y1="72" x2="89" y2="69" stroke="#64C8FFB3" stroke-width="1.2" stroke-linecap="round" />
    <circle cx="75" cy="71" r="1.8" fill="#B4F0FFE6" />
  </g>
  <g style="opacity: 0.6">
    <ellipse cx="185" cy="75" rx="6" ry="5" fill="#1A80CC" />
    <line x1="179" y1="75" x2="171" y2="72" stroke="#64C8FFB3" stroke-width="1.2" stroke-linecap="round" />
    <line x1="191" y1="75" x2="199" y2="72" stroke="#64C8FFB3" stroke-width="1.2" stroke-linecap="round" />
    <circle cx="185" cy="74" r="1.8" fill="#B4F0FFE6" />
  </g>
  <g style="opacity: 0.55">
    <ellipse cx="110" cy="82" rx="5" ry="4.5" fill="#1A80CC" />
    <line x1="105" y1="82" x2="98" y2="79" stroke="#64C8FFB3" stroke-linecap="round" />
    <line x1="115" y1="82" x2="122" y2="79" stroke="#64C8FFB3" stroke-linecap="round" />
  </g>
  <g style="opacity: 0.55">
    <ellipse cx="150" cy="82" rx="5" ry="4.5" fill="#1A80CC" />
    <line x1="145" y1="82" x2="138" y2="79" stroke="#64C8FFB3" stroke-linecap="round" />
    <line x1="155" y1="82" x2="162" y2="79" stroke="#64C8FFB3" stroke-linecap="round" />
  </g>
  <ellipse cx="130" cy="48" rx="16" ry="14" fill="#1E8CDC4D" />
  <ellipse cx="130" cy="48" rx="12" ry="10" fill="#2288EE" />
  <line x1="118" y1="48" x2="104" y2="42" stroke="#8CDCFFE6" stroke-width="2.5" stroke-linecap="round" />
  <line x1="142" y1="48" x2="156" y2="42" stroke="#8CDCFFE6" stroke-width="2.5" stroke-linecap="round" />
  <circle cx="126" cy="46" r="2.5" fill="#FFFFFF" />
  <circle cx="134" cy="46" r="2.5" fill="#FFFFFF" />
  <circle cx="126" cy="46" r="1.2" fill="#0A2244" />
  <circle cx="134" cy="46" r="1.2" fill="#0A2244" />
  <path d="M126 52 Q130 55 134 52" stroke="#0A4488" stroke-width="1.5" stroke-linecap="round" fill="none" />
  <circle cx="130" cy="48" r="18" fill="#3CB4FF1A" />
</svg>