<svg width="287" height="120" viewBox="-13.5 -12.5 287 120" fill="none" xmlns="http://www.w3.org/2000/svg" style="flex-shrink: 0">
  <ellipse cx="130" cy="72" rx="110" ry="22" fill="#BE50FF1F" />
  <path d="M30 68 Q16 78 12 68 Q8 58 20 56" stroke="#A040CC" stroke-width="5" stroke-linecap="round" fill="none" />
  <ellipse cx="48" cy="62" rx="22" ry="19" fill="#B050E8" />
  <ellipse cx="72" cy="59" rx="22" ry="20" fill="#C060F8" />
  <ellipse cx="97" cy="56" rx="22" ry="20" fill="#B050E8" />
  <ellipse cx="122" cy="54" rx="22" ry="20" fill="#C060F8" />
  <ellipse cx="147" cy="55" rx="21" ry="19" fill="#B050E8" />
  <ellipse cx="175" cy="52" rx="28" ry="26" fill="#CC70FF" />
  <circle cx="72" cy="50" r="5" fill="#F0BEFFF2" />
  <circle cx="97" cy="46" r="6" fill="#F0BEFFF2" />
  <circle cx="122" cy="44" r="5" fill="#F0BEFFF2" />
  <circle cx="147" cy="45" r="5" fill="#F0BEFFF2" />
  <circle cx="168" cy="45" r="8" fill="#FFFFFF" />
  <circle cx="183" cy="45" r="8" fill="#FFFFFF" />
  <circle cx="170" cy="46" r="4.5" fill="#1A0035" />
  <circle cx="185" cy="46" r="4.5" fill="#1A0035" />
  <circle cx="171" cy="44" r="1.8" fill="#FFFFFF" />
  <circle cx="186" cy="44" r="1.8" fill="#FFFFFF" />
  <path d="M166 57 Q175 64 185 57" stroke="#8820AA" stroke-width="2.5" stroke-linecap="round" fill="none" />
  <circle cx="22" cy="32" r="3" fill="#D28CFFCC" />
  <circle cx="44" cy="20" r="2" fill="#D28CFF99" />
  <circle cx="215" cy="22" r="3.5" fill="#D28CFFCC" />
  <circle cx="235" cy="35" r="2" fill="#D28CFF99" />
  <circle cx="205" cy="12" r="2.5" fill="#D28CFFB3" />
  <line x1="168" y1="28" x2="160" y2="14" stroke="#CC70FF" stroke-width="2" stroke-linecap="round" />
  <circle cx="159" cy="12" r="3.5" fill="#F0BEFFF2" />
  <line x1="180" y1="26" x2="185" y2="11" stroke="#CC70FF" stroke-width="2" stroke-linecap="round" />
  <circle cx="186" cy="9" r="3.5" fill="#F0BEFFF2" />
</svg>