<svg width="287" height="120" viewBox="0 0 287 120" fill="none" xmlns="http://www.w3.org/2000/svg" style="width: 287px; height: auto; flex-shrink: 0">
  <defs><radialGradient id="_m1s3bj0" cx="50%" cy="55%" r="45%"><stop offset="0%" stop-color="#a855f7" stop-opacity="0.28"/><stop offset="100%" stop-color="#a855f7" stop-opacity="0"/></radialGradient></defs>
  <ellipse cx="143" cy="65" rx="95" ry="52" fill="url(#_m1s3bj0)" />
  <g transform="translate(16, 5)" style="opacity: 0.22">
    <ellipse cx="143" cy="85" rx="28" ry="22" fill="#C084FC" />
    <ellipse cx="143" cy="64" rx="20" ry="20" fill="#C084FC" />
    <circle cx="143" cy="46" r="18" fill="#C084FC" />
    <polygon points="130,32 125,14 138,30" fill="#C084FC" />
    <polygon points="156,32 161,14 148,30" fill="#C084FC" />
    <path d="M 171 80 Q 188 72 190 60 Q 192 48 180 46" stroke="#C084FC" stroke-width="8" fill="none" stroke-linecap="round" />
  </g>
  <path d="M 171 80 Q 190 72 192 58 Q 194 46 182 44" stroke="#7C3AED" stroke-width="9" fill="none" stroke-linecap="round" />
  <path d="M 171 80 Q 190 72 192 58 Q 194 46 182 44" stroke="#C084FC" stroke-width="5" fill="none" stroke-linecap="round" style="opacity: 0.45" />
  <ellipse cx="143" cy="85" rx="28" ry="22" fill="#7C3AED" />
  <ellipse cx="143" cy="64" rx="20" ry="20" fill="#7C3AED" />
  <circle cx="143" cy="46" r="18" fill="#9333EA" />
  <polygon points="130,34 124,14 138,31" fill="#7C3AED" />
  <polygon points="131,33 126,17 137,30" fill="#C084FC" style="opacity: 0.5" />
  <polygon points="156,34 162,14 148,31" fill="#7C3AED" />
  <polygon points="155,33 160,17 149,30" fill="#C084FC" style="opacity: 0.5" />
  <circle cx="136" cy="44" r="5.5" fill="#E879F9" />
  <circle cx="150" cy="44" r="5.5" fill="#E879F9" />
  <circle cx="136" cy="44" r="3" fill="#1A0533" />
  <circle cx="150" cy="44" r="3" fill="#1A0533" />
  <circle cx="137" cy="42.8" r="1.3" fill="#FFFFFF" />
  <circle cx="151" cy="42.8" r="1.3" fill="#FFFFFF" />
  <line x1="100" y1="52" x2="186" y2="52" stroke="#E879F9" stroke-width="0.8" style="opacity: 0.25" />
  <line x1="105" y1="66" x2="180" y2="66" stroke="#C084FC" stroke-width="0.6" style="opacity: 0.2" />
</svg>