<svg width="287" height="120" viewBox="-13.5 -12.5 287 120" fill="none" xmlns="http://www.w3.org/2000/svg" style="flex-shrink: 0">
  <path d="M90 72 Q65 78 55 62 Q45 46 60 34 Q72 22 90 28 Q100 18 118 22 Q136 16 148 28 Q165 22 175 36 Q188 50 178 65 Q168 80 148 76 Q132 85 112 80 Q96 84 90 72Z" fill="#2255CC" />
  <rect x="170" y="30" width="40" height="45" rx="4" fill="#50A0FF80" stroke="#78C8FFCC" stroke-width="1.5" />
  <rect x="166" y="28" width="48" height="8" rx="3" fill="#78C8FFB3" />
  <path d="M210 40 Q228 40 228 52 Q228 64 210 64" stroke="#78C8FFCC" stroke-width="3" fill="none" stroke-linecap="round" />
  <circle cx="102" cy="50" r="9" fill="#FFFFFF" />
  <circle cx="124" cy="47" r="9" fill="#FFFFFF" />
  <circle cx="104" cy="51" r="5" fill="#0A1A66" />
  <circle cx="126" cy="48" r="5" fill="#0A1A66" />
  <circle cx="105" cy="49" r="2" fill="#FFFFFF" />
  <circle cx="127" cy="46" r="2" fill="#FFFFFF" />
  <path d="M104 62 Q114 70 126 64" stroke="#0A2299" stroke-width="2.5" stroke-linecap="round" fill="none" />
  <ellipse cx="75" cy="78" rx="5" ry="8" fill="#1A44AA" style="opacity: 0.7" />
  <ellipse cx="148" cy="80" rx="4" ry="7" fill="#1A44AA" style="opacity: 0.7" />
  <ellipse cx="95" cy="36" rx="18" ry="8" fill="#8CC8FF40" transform="rotate(-20 95 36)" />
  <ellipse cx="50" cy="85" rx="14" ry="5" stroke="#50A0FF4D" stroke-width="1.5" fill="none" />
  <ellipse cx="50" cy="85" rx="22" ry="8" stroke="#50A0FF26" fill="none" />
</svg>