<svg width="287" height="120" viewBox="-8 13 320 134" fill="none" xmlns="http://www.w3.org/2000/svg" preserveAspectRatio="none" style="flex-shrink: 0">
  <defs><radialGradient id="_a66zti0" cx="50%" cy="65%" r="50%"><stop offset="0%" stop-color="#ef4444" stop-opacity="0.22"/><stop offset="100%" stop-color="#ef4444" stop-opacity="0"/></radialGradient></defs>
  <ellipse cx="145" cy="72" rx="110" ry="52" fill="url(#_a66zti0)" />
  <path d="M 218 70 Q 255 52 264 72 Q 270 88 255 92" stroke="#7F1D1D" stroke-width="10" fill="none" stroke-linecap="round" />
  <ellipse cx="155" cy="77" rx="72" ry="29" fill="#7F1D1D" />
  <ellipse cx="155" cy="73" rx="68" ry="25" fill="#B91C1C" />
  <ellipse cx="97" cy="72" rx="24" ry="19" fill="#B91C1C" />
  <ellipse cx="67" cy="69" rx="30" ry="20" fill="#B91C1C" />
  <path d="M 36 63 Q 54 56 78 63 Q 87 67 93 72" fill="#991B1B" />
  <path d="M 36 72 Q 50 80 66 82 Q 78 83 91 76" fill="#7F1D1D" />
  <polygon points="43,63 47,54 51,63" fill="#FEF2F2" style="opacity: 0.88" />
  <polygon points="54,61 58,52 62,61" fill="#FEF2F2" style="opacity: 0.88" />
  <polygon points="66,60 70,51 74,60" fill="#FEF2F2" style="opacity: 0.88" />
  <polygon points="46,72 50,81 54,72" fill="#FEF2F2" style="opacity: 0.72" />
  <polygon points="60,73 64,82 68,73" fill="#FEF2F2" style="opacity: 0.72" />
  <circle cx="74" cy="61" r="6" fill="#EF4444" />
  <circle cx="74" cy="61" r="3" fill="#1A0000" />
  <circle cx="75.5" cy="59.5" r="1.2" fill="#FCA5A5" />
  <polygon points="106,67 110,48 114,67" fill="#DC2626" />
  <polygon points="122,64 127,44 132,64" fill="#DC2626" />
  <polygon points="140,62 145,42 150,62" fill="#DC2626" />
  <polygon points="159,62 163,45 167,62" fill="#DC2626" />
  <polygon points="177,64 181,50 185,64" fill="#DC2626" />
  <line x1="117" y1="97" x2="102" y2="116" stroke="#7F1D1D" stroke-width="5.5" stroke-linecap="round" />
  <line x1="148" y1="100" x2="138" y2="118" stroke="#7F1D1D" stroke-width="5.5" stroke-linecap="round" />
  <line x1="178" y1="98" x2="171" y2="117" stroke="#7F1D1D" stroke-width="5.5" stroke-linecap="round" />
  <line x1="110" y1="95" x2="96" y2="112" stroke="#991B1B" stroke-width="3.5" stroke-linecap="round" style="opacity: 0.45" />
  <line x1="140" y1="98" x2="131" y2="114" stroke="#991B1B" stroke-width="3.5" stroke-linecap="round" style="opacity: 0.45" />
  <line x1="170" y1="96" x2="164" y2="112" stroke="#991B1B" stroke-width="3.5" stroke-linecap="round" style="opacity: 0.45" />
</svg>