<svg xmlns:xlink="http://www.w3.org/1999/xlink" xmlns="http://www.w3.org/2000/svg" xml:space="preserve" fill="currentColor" viewBox="0 0 527 170" class="w-[98px] dt-lg:w-[132px] dt-xl:w-[175px]" style="fill-rule: evenodd; clip-rule: evenodd; stroke-linejoin: round; stroke-miterlimit: 2;" width="527"  height="170" ><path d="M0 52.97h20.06v114.58H0z" fill="#FFFFFF"></path><path d="M85.29 52.98h62.27v15.15h-21.18v99.43h-20.07V68.13H85.29z" style="fill-rule: nonzero;" fill="#FFFFFF"></path><path d="M372.78 248.1h18.3v42.53h.32a26.7 26.7 0 0 1 10-9.39 29.6 29.6 0 0 1 14.85-3.77q13.64 0 21.51 7.06t7.86 21.18v57h-18.3v-52.18q-.32-9.79-4.17-14.2t-12-4.41a19.9 19.9 0 0 0-8.35 1.68 18 18 0 0 0-6.26 4.65 21.9 21.9 0 0 0-4 7 25 25 0 0 0-1.44 8.51v48.95h-18.3V248.1zm105.27 77.83a32 32 0 0 0 1.36 9.31 22.8 22.8 0 0 0 4.09 7.86 19.65 19.65 0 0 0 6.9 5.38 22.7 22.7 0 0 0 9.95 2q8 0 12.92-3.45a20.4 20.4 0 0 0 7.3-10.35h17.33a34.38 34.38 0 0 1-13.48 20.94 36.7 36.7 0 0 1-11.15 5.45 45 45 0 0 1-12.92 1.85 43.9 43.9 0 0 1-17.35-3.2 35.8 35.8 0 0 1-12.76-9 38.1 38.1 0 0 1-7.86-13.8 56 56 0 0 1-2.65-17.65 49.9 49.9 0 0 1 2.81-16.77 42.8 42.8 0 0 1 8-14 37.65 37.65 0 0 1 29.29-13.08 37.2 37.2 0 0 1 17.58 4.09 38.6 38.6 0 0 1 12.91 10.83 43.9 43.9 0 0 1 7.46 15.49 47.6 47.6 0 0 1 1.2 18.06h-61zm42.68-12a29.6 29.6 0 0 0-1.84-8.35 22.4 22.4 0 0 0-4.17-7 20.7 20.7 0 0 0-6.42-4.81 18.9 18.9 0 0 0-8.42-1.85 22 22 0 0 0-8.75 1.68 19.9 19.9 0 0 0-6.74 4.65 22.9 22.9 0 0 0-4.49 7 24.2 24.2 0 0 0-1.85 8.66h42.68zm31.14-34.22h17.33v12.2l.32.32a30.7 30.7 0 0 1 10.91-10.83 29.13 29.13 0 0 1 14.92-3.93q13.64 0 21.51 7.07c7.87 7.07 7.867 11.773 7.86 21.18v57h-18.28v-52.2q-.33-9.79-4.17-14.2t-12-4.41a19.9 19.9 0 0 0-8.35 1.69 18.1 18.1 0 0 0-6.26 4.65 21.9 21.9 0 0 0-4 7 24.9 24.9 0 0 0-1.44 8.51v48.95h-18.3v-83z" transform="translate(-216.66 -195.12)" style="fill-rule: nonzero;" fill="#FFFFFF"></path><path d="M444.5 81.85V16.37h32.74V0h-49.11v98.22h49.11V81.85zm81.85 32.74V16.37h-49.11v16.37h32.74v65.48h-32.74v16.37z" style="fill-rule: nonzero;" fill="#FFFFFF"></path><path d="M280.54 248.1c-2.87-.002-5.733.3-8.54.9a16.9 16.9 0 0 0-7.3 3.53 18.1 18.1 0 0 0-5.13 7.54 35.4 35.4 0 0 0-1.93 12.76v6.9h-13.69v13.64h13.64v69.33h18.3v-69.35h17.49v-13.64h-17.49v-7.79c0-5.17 3.16-8.67 9-8.67h8.51V248.1z" transform="translate(-216.66 -195.12)" style="fill-rule: nonzero;" fill="#FFFFFF"></path></svg>